<?xml version="1.0" standalone="no"?>
<!DOCTYPE svg PUBLIC "-//W3C//DTD SVG 20010904//EN"
 "http://www.w3.org/TR/2001/REC-SVG-20010904/DTD/svg10.dtd">
<svg version="1.0" xmlns="http://www.w3.org/2000/svg"
 width="514.000000pt" height="538.000000pt" viewBox="0 0 514.000000 538.000000"
 preserveAspectRatio="xMidYMid meet">

<g transform="translate(0.000000,538.000000) scale(0.100000,-0.100000)"
fill="#333333" stroke="none">

<path fill-rule="evenodd" d="M2894 4666 c94 -47 160 -115 208 -215 41 -84 42 -89 42 -186 -1 -94 -3 -105 -38 -180 -21 -44 -47 -92 -58 -107 -22 -32 -18 -45 40 -101 48 -46 89 -128 103 -204 13 -67 0 -150 -34 -222 -24 -51 -539 -831 -594 -898 -31 -38 -39 -43 -76 -43 -76 0 -118 51 -96 118 6 20 72 125 145 235 74 109 134 202 134 206 0 3 9 17 20 31 57 70 292 439 300 471 13 49 0 109 -34 154 -15 19 -35 35 -44 34 -11 0 -51 -52 -106 -137 -92 -141 -374 -569 -617 -937 -77 -115 -144 -217 -149 -225 -6 -8 -37 -55 -70 -104 -33 -48 -60 -90 -60 -92 0 -2 -49 -77 -108 -166 -60 -90 -117 -178 -128 -195 -10 -18 -22 -33 -25 -33 -4 0 -9 -6 -11 -13 -3 -10 -245 -383 -299 -459 -10 -15 -19 -30 -19 -33 0 -4 -27 -46 -59 -93 -53 -76 -70 -94 -146 -142 -47 -30 -177 -115 -288 -188 -310 -205 -356 -232 -397 -232 -38 0 -83 33 -95 71 -4 11 -2 50 4 85 6 35 15 92 21 127 5 34 21 132 35 217 13 85 30 187 36 225 6 39 14 88 19 110 5 22 12 58 15 80 6 38 111 221 142 246 7 6 13 15 13 19 0 7 234 366 257 395 5 6 62 93 127 195 66 102 146 223 178 270 33 47 80 117 105 155 25 39 89 135 141 215 52 80 120 182 151 228 31 46 61 90 66 99 27 44 276 421 292 443 11 14 79 117 152 230 226 350 291 440 353 490 92 73 142 89 278 87 105 -2 120 -5 174 -31z m1778 -1196 c15 -16 30 -42 34 -57 3 -16 14 -57 25 -93 10 -36 35 -126 55 -200 41 -153 82 -294 95 -328 17 -43 10 -70 -29 -112 -26 -26 -48 -40 -65 -40 -39 0 -84 44 -100 98 -15 49 -54 185 -82 285 -17 58 -39 75 -52 40 -3 -10 -57 -123 -119 -251 -63 -128 -114 -234 -114 -236 0 -3 -111 -205 -159 -288 -29 -52 -53 -95 -83 -148 -67 -120 -227 -360 -329 -495 -104 -137 -261 -279 -355 -321 -61 -27 -146 -39 -218 -30 -74 10 -155 61 -263 167 -109 107 -139 123 -211 116 -112 -12 -172 -64 -542 -467 -410 -446 -821 -650 -1365 -675 -146 -7 -166 -2 -198 53 -23 40 -17 74 21 112 26 26 33 27 162 33 260 13 528 85 738 199 165 90 385 281 567 493 87 101 260 275 332 333 34 28 92 65 130 84 64 31 74 33 173 33 98 0 109 -2 159 -30 30 -16 88 -63 130 -103 132 -128 156 -144 211 -150 147 -14 324 172 637 668 23 36 50 81 61 100 11 19 40 71 65 115 155 275 404 779 397 805 -3 10 -35 -2 -149 -57 -202 -96 -219 -103 -256 -103 -48 0 -95 44 -95 90 0 72 31 91 455 285 33 15 95 44 137 65 42 21 85 41 95 43 35 10 78 -3 105 -33z M2623 4485 c-57 -29 -140 -113 -149 -152 -4 -13 -5 -25 -3 -26 135 -93 365 -240 376 -241 10 -1 30 26 54 69 35 63 39 78 39 141 0 65 -3 76 -33 120 -71 104 -185 139 -284 89z M2262 4018 c-45 -68 -147 -222 -227 -343 -79 -121 -148 -225 -152 -230 -8 -10 -119 -176 -138 -206 -5 -9 -23 -36 -39 -60 -276 -416 -320 -482 -391 -593 -40 -62 -140 -211 -146 -216 -3 -3 -59 -88 -124 -190 -65 -102 -127 -194 -137 -206 -10 -11 -18 -23 -18 -26 0 -3 -38 -63 -85 -133 -47 -71 -85 -133 -85 -140 0 -14 71 -67 195 -145 55 -34 109 -70 120 -79 32 -26 65 -42 74 -36 5 3 53 73 107 157 55 84 168 256 252 383 84 126 157 237 163 245 5 8 52 80 104 160 52 80 98 150 103 155 7 9 60 91 220 340 25 39 48 72 51 75 7 5 49 69 353 530 96 146 182 273 191 282 10 9 17 19 17 23 0 3 16 29 35 57 26 40 32 55 23 65 -18 22 -357 253 -371 253 -7 0 -49 -55 -95 -122z M636 1442 c-3 -9 -13 -64 -21 -122 -13 -93 -22 -148 -42 -256 -3 -17 -1 -34 3 -37 5 -3 83 44 174 104 91 61 172 114 180 118 11 7 11 12 2 23 -16 20 -267 188 -280 188 -6 0 -13 -8 -16 -18z"/>

</g>
</svg>